<?xml version="1.0" encoding="UTF-8" standalone="no"?>
<!-- Created with Inkscape (http://www.inkscape.org/) -->

<svg
   width="297mm"
   height="210mm"
   viewBox="0 0 297 210"
   version="1.1"
   id="svg5"
   xmlns="http://www.w3.org/2000/svg"
   xmlns:svg="http://www.w3.org/2000/svg">
  <defs
     id="defs2">
    <rect
       x="425.23073"
       y="382.74493"
       width="78.263325"
       height="90.189165"
       id="rect41589" />
  </defs>
  <g
     id="layer1">
    <g
       aria-label="0"
       id="text8168"
       style="font-size:6.35px;line-height:1.25;stroke-width:0.264583">
      <path
         d="m 88.142364,78.1573 v 0.644922 q 0,0.840258 -0.399975,1.330151 -0.313159,0.384473 -0.79065,0.384473 -0.229443,0 -0.434082,-0.09302 -0.201538,-0.08992 -0.344165,-0.254248 -0.08992,-0.102319 -0.198437,-0.328662 -0.10542,-0.226343 -0.151929,-0.415479 -0.07131,-0.26665 -0.07131,-0.623217 V 78.1573 q 0,-0.84336 0.399975,-1.333252 0.313159,-0.384473 0.79065,-0.384473 0.232544,0 0.434082,0.09302 0.201538,0.08992 0.344165,0.254248 0.09302,0.10542 0.198437,0.331763 0.10542,0.226342 0.15503,0.412377 0.06821,0.266651 0.06821,0.626319 z m -0.260449,0.03411 q 0,-0.368969 -0.10542,-0.685229 -0.102319,-0.319361 -0.232544,-0.508496 -0.07751,-0.108521 -0.201538,-0.186035 -0.176733,-0.108521 -0.396875,-0.108521 -0.437182,0 -0.685229,0.446484 -0.248047,0.446485 -0.248047,1.041797 v 0.573609 q 0,0.368969 0.102319,0.68833 0.10542,0.31936 0.238745,0.508496 0.07441,0.10542 0.198438,0.182934 0.176733,0.111621 0.399975,0.111621 0.434082,0 0.682129,-0.446484 0.248047,-0.449585 0.248047,-1.044897 z"
         style="font-family:monospace;-inkscape-font-specification:monospace"
         id="path1033" />
    </g>
    <g
       aria-label="0"
       id="text8168-0"
       style="font-size:6.35px;line-height:1.25;stroke-width:0.264583">
      <path
         d="m 107.02081,99.429829 v 0.644921 q 0,0.84026 -0.39997,1.33015 -0.31316,0.38448 -0.79065,0.38448 -0.22945,0 -0.43408,-0.093 -0.20154,-0.0899 -0.34417,-0.25425 -0.0899,-0.10232 -0.19844,-0.32866 -0.10542,-0.22635 -0.15193,-0.41548 -0.0713,-0.26665 -0.0713,-0.62322 v -0.644921 q 0,-0.843359 0.39998,-1.333251 0.31316,-0.384473 0.79065,-0.384473 0.23254,0 0.43408,0.09302 0.20154,0.08992 0.34416,0.254248 0.093,0.10542 0.19844,0.331763 0.10542,0.226343 0.15503,0.412378 0.0682,0.26665 0.0682,0.626318 z m -0.26045,0.03411 q 0,-0.36897 -0.10542,-0.68523 -0.10232,-0.31936 -0.23254,-0.508496 -0.0775,-0.10852 -0.20154,-0.186035 -0.17673,-0.10852 -0.39687,-0.10852 -0.43719,0 -0.68523,0.446484 -0.24805,0.446484 -0.24805,1.041797 v 0.573604 q 0,0.36897 0.10232,0.68833 0.10542,0.31936 0.23874,0.5085 0.0744,0.10542 0.19844,0.18293 0.17674,0.11163 0.39998,0.11163 0.43408,0 0.68213,-0.44649 0.24804,-0.44958 0.24804,-1.0449 z"
         style="font-family:monospace;-inkscape-font-specification:monospace"
         id="path1036" />
    </g>
    <g
       aria-label="1"
       id="text8168-06"
       style="font-size:6.35px;line-height:1.25;stroke-width:0.264583">
      <path
         d="m 109.33484,76.5729 v 3.683496 h 0.89297 q 0.093,0 0.13333,0.03721 0.0403,0.03411 0.0403,0.09302 0,0.05581 -0.0403,0.09302 -0.0403,0.03721 -0.13333,0.03721 h -2.04639 q -0.093,0 -0.13332,-0.03721 -0.0403,-0.03721 -0.0403,-0.09302 0,-0.05891 0.0403,-0.09302 0.0403,-0.03721 0.13332,-0.03721 h 0.89297 v -3.323828 l -0.84956,0.266651 q -0.062,0.0186 -0.0899,0.0186 -0.0465,0 -0.0868,-0.03721 -0.0372,-0.04031 -0.0372,-0.09302 0,-0.04651 0.031,-0.08682 0.0248,-0.0248 0.10232,-0.05271 z"
         style="font-family:monospace;-inkscape-font-specification:monospace"
         id="path1039" />
    </g>
    <g
       aria-label="1"
       id="text8168-06-0"
       style="font-size:6.35px;line-height:1.25;stroke-width:0.264583">
      <path
         d="m 123.31988,97.845438 v 3.683492 h 0.89297 q 0.093,0 0.13332,0.0372 0.0403,0.0341 0.0403,0.093 0,0.0558 -0.0403,0.093 -0.0403,0.0372 -0.13332,0.0372 h -2.04639 q -0.093,0 -0.13332,-0.0372 -0.0403,-0.0372 -0.0403,-0.093 0,-0.0589 0.0403,-0.093 0.0403,-0.0372 0.13332,-0.0372 h 0.89297 v -3.323824 l -0.84956,0.26665 q -0.062,0.0186 -0.0899,0.0186 -0.0465,0 -0.0868,-0.03721 -0.0372,-0.04031 -0.0372,-0.09302 0,-0.04651 0.031,-0.08682 0.0248,-0.02481 0.10232,-0.05271 z"
         style="font-family:monospace;-inkscape-font-specification:monospace"
         id="path1042" />
    </g>
    <g
       id="g46134"
       transform="translate(-0.49302789,-13.912773)">
      <path
         id="path27825"
         style="fill:none;stroke:#000000;stroke-width:0.264583"
         d="m 86.598044,105.91177 a 6.0660467,6.0660467 0 0 1 -6.066046,6.06605 6.0660467,6.0660467 0 0 1 -6.066047,-6.06605 6.0660467,6.0660467 0 0 1 6.066047,-6.066043 6.0660467,6.0660467 0 0 1 6.066046,6.066043 z" />
      <g
         aria-label="a"
         id="text29897"
         style="font-size:10.5833px;line-height:0.95;stroke-width:0.264583">
        <path
           d="m 82.984037,108.78756 h -0.966346 v -0.61495 q -0.129191,0.0878 -0.351399,0.24805 -0.21704,0.15503 -0.423745,0.24804 -0.242878,0.11886 -0.558104,0.19637 -0.315225,0.0827 -0.73897,0.0827 -0.780312,0 -1.322913,-0.51677 -0.542601,-0.51676 -0.542601,-1.31774 0,-0.65629 0.279052,-1.05937 0.28422,-0.40824 0.80615,-0.64078 0.527098,-0.23254 1.266069,-0.31523 0.73897,-0.0827 1.586461,-0.12402 v -0.14986 q 0,-0.33073 -0.118855,-0.54777 -0.113688,-0.21704 -0.330728,-0.34106 -0.206706,-0.11886 -0.496093,-0.1602 -0.289387,-0.0413 -0.604612,-0.0413 -0.382404,0 -0.852658,0.10335 -0.470254,0.0982 -0.971514,0.28939 h -0.05168 v -0.98702 q 0.28422,-0.0775 0.821653,-0.17053 0.537433,-0.093 1.059364,-0.093 0.60978,0 1.059363,0.10336 0.454751,0.0982 0.785479,0.34106 0.325561,0.23771 0.496093,0.61495 0.170531,0.37723 0.170531,0.93534 z m -0.966346,-1.4211 v -1.60713 q -0.444416,0.0258 -1.049028,0.0775 -0.599445,0.0517 -0.950844,0.14987 -0.418577,0.11885 -0.676959,0.37206 -0.258381,0.24805 -0.258381,0.6873 0,0.49609 0.299722,0.74931 0.299723,0.24804 0.91467,0.24804 0.511595,0 0.935341,-0.19637 0.423745,-0.20154 0.785479,-0.48059 z"
           id="path1046" />
      </g>
    </g>
    <g
       id="g46129"
       transform="translate(-0.49302789,5.9163347)">
      <path
         id="path27825-7"
         style="fill:none;stroke:#000000;stroke-width:0.264583"
         d="m 107.43259,105.9024 a 6.0660467,6.0660467 0 0 1 -6.06605,6.06604 6.0660467,6.0660467 0 0 1 -6.066048,-6.06604 6.0660467,6.0660467 0 0 1 6.066048,-6.06605 6.0660467,6.0660467 0 0 1 6.06605,6.06605 z" />
      <g
         aria-label="b"
         id="text29897-5"
         style="font-size:10.5833px;line-height:0.95;stroke-width:0.264583">
        <path
           d="m 104.41286,105.84814 q 0,0.72347 -0.20671,1.30224 -0.20154,0.57877 -0.54777,0.97151 -0.3669,0.40825 -0.80615,0.61495 -0.43925,0.20154 -0.96634,0.20154 -0.49093,0 -0.85783,-0.11886 -0.3669,-0.11368 -0.72347,-0.31005 l -0.062,0.26871 h -0.909501 v -8.04082 h 0.971511 v 2.8732 q 0.40824,-0.3359 0.86816,-0.54777 0.45992,-0.21704 1.03353,-0.21704 1.02319,0 1.6123,0.78548 0.59428,0.78548 0.59428,2.21691 z m -1.00252,0.0258 q 0,-1.03353 -0.34107,-1.56579 -0.34106,-0.53744 -1.1007,-0.53744 -0.42375,0 -0.85783,0.18604 -0.43408,0.18086 -0.80615,0.47025 v 3.30728 q 0.41341,0.18604 0.70797,0.25838 0.29972,0.0724 0.67696,0.0724 0.80615,0 1.2609,-0.5271 0.45992,-0.53226 0.45992,-1.66397 z"
           id="path1050" />
      </g>
    </g>
    <g
       id="g46124"
       transform="translate(8.5786853,2.8595644)">
      <path
         id="path27825-5"
         style="fill:none;stroke:#000000;stroke-width:0.264583"
         d="m 125.97043,108.95917 a 6.0660467,6.0660467 0 0 1 -6.06605,6.06604 6.0660467,6.0660467 0 0 1 -6.06605,-6.06604 6.0660467,6.0660467 0 0 1 6.06605,-6.06605 6.0660467,6.0660467 0 0 1 6.06605,6.06605 z" />
      <g
         aria-label="c"
         id="text29897-6"
         style="font-size:10.5833px;line-height:0.95;stroke-width:0.264583">
        <path
           d="m 122.13939,111.47322 q -0.48576,0.23254 -0.92501,0.36173 -0.43408,0.12919 -0.925,0.12919 -0.62529,0 -1.14722,-0.18086 -0.52193,-0.18604 -0.894,-0.55811 -0.37723,-0.37207 -0.58394,-0.9405 -0.2067,-0.56844 -0.2067,-1.32808 0,-1.41593 0.77514,-2.22208 0.78031,-0.80615 2.05672,-0.80615 0.49609,0 0.97151,0.13952 0.48059,0.13953 0.8785,0.34107 v 1.08003 h -0.0517 q -0.44441,-0.34623 -0.91984,-0.53227 -0.47025,-0.18603 -0.91983,-0.18603 -0.82682,0 -1.30741,0.5581 -0.47542,0.55294 -0.47542,1.62781 0,1.04386 0.46508,1.60713 0.47026,0.5581 1.31775,0.5581 0.29455,0 0.59944,-0.0775 0.30489,-0.0775 0.54777,-0.20154 0.21187,-0.10852 0.39791,-0.22738 0.18603,-0.12402 0.29455,-0.21187 h 0.0517 z"
           id="path1054" />
      </g>
    </g>
    <path
       id="path27825-5-9"
       style="fill:none;stroke:#000000;stroke-width:0.264583"
       d="m 120.74433,91.999001 a 6.0660467,6.0660467 0 0 1 -6.06605,6.066046 6.0660467,6.0660467 0 0 1 -6.06604,-6.066046 6.0660467,6.0660467 0 0 1 6.06604,-6.066047 6.0660467,6.0660467 0 0 1 6.06605,6.066047 z" />
    <path
       id="path27825-5-5"
       style="fill:none;stroke:#000000;stroke-width:0.264583"
       d="m 103.42467,67.742035 a 6.0660467,6.0660467 0 0 1 -6.066043,6.066047 6.0660467,6.0660467 0 0 1 -6.066046,-6.066047 6.0660467,6.0660467 0 0 1 6.066046,-6.066047 6.0660467,6.0660467 0 0 1 6.066043,6.066047 z" />
    <g
       transform="scale(0.26458333)"
       id="text41587"
       style="font-size:40px;line-height:0.95;white-space:pre;shape-inside:url(#rect41589)" />
    <path
       style="fill:none;stroke:#000000;stroke-width:0.280177px;stroke-linecap:butt;stroke-linejoin:miter;stroke-opacity:1"
       d="m 100.61018,72.850109 10.65838,14.090118"
       id="path46169" />
    <path
       style="fill:none;stroke:#000000;stroke-width:0.289501px;stroke-linecap:butt;stroke-linejoin:miter;stroke-opacity:1"
       d="m 118.08008,97.036195 6.95189,9.745335"
       id="path46171" />
    <path
       style="fill:none;stroke:#000000;stroke-width:0.283074px;stroke-linecap:butt;stroke-linejoin:miter;stroke-opacity:1"
       d="m 111.10361,96.986227 -7.19776,9.487823"
       id="path46173" />
    <path
       style="fill:none;stroke:#000000;stroke-width:0.270418px;stroke-linecap:butt;stroke-linejoin:miter;stroke-opacity:1"
       d="M 93.868492,72.797894 83.744805,87.103374"
       id="path46175" />
  </g>
</svg>
